<svg xmlns="http://www.w3.org/2000/svg" viewBox="0 0 150 150"><defs><style>.cls-1{fill:#fff;}.cls-2{fill:#f59332;}</style></defs><g id="Warstwa_2" data-name="Warstwa 2"><g id="Logo_1" data-name="Logo 1"><g id="logo"><g id="logomark"><circle class="cls-1" cx="75" cy="75" r="75"/><path class="cls-2" d="M144.78,48a73.36,73.36,0,0,1,4,14.38,68.85,68.85,0,0,1-14.14,12.6V75l0,0,0,0v-.06a59.75,59.75,0,0,0-15.87-7.46A44.4,44.4,0,0,0,116.31,59a59.14,59.14,0,0,1,17.08,4.17A68.16,68.16,0,0,0,144.78,48Z"/><path class="cls-2" d="M130.3,24.58a74.5,74.5,0,0,1,8.89,11.94,67.82,67.82,0,0,1-8.62,16.89l0,.06-.05,0,0,0,0-.06A58.87,58.87,0,0,0,113,52.24a44.27,44.27,0,0,0-5.27-7.08,59.72,59.72,0,0,1,17.42-2.27A68.64,68.64,0,0,0,130.3,24.58Z"/><path class="cls-2" d="M108.37,8A74.68,74.68,0,0,1,121,16a69,69,0,0,1-2,18.84l0,0h0v0l0,0a59.49,59.49,0,0,0-16.76,5.19,43.59,43.59,0,0,0-7.46-4.71,58.87,58.87,0,0,1,15.44-8.41A67.93,67.93,0,0,0,108.37,8Z"/><path class="cls-2" d="M81.89.49A74.71,74.71,0,0,1,96.53,3.32a68.2,68.2,0,0,1,5,18.29l0,0,0,0v.06l0,0A59,59,0,0,0,87.75,32.57,44.38,44.38,0,0,0,79.1,30.9,60,60,0,0,1,90.44,17.46,68.67,68.67,0,0,0,81.89.49Z"/><path class="cls-2" d="M54.53,3A74.74,74.74,0,0,1,69.2.4,68.91,68.91,0,0,1,80.44,15.64h.06l0,0,0,.05h-.06a60.39,60.39,0,0,0-8.89,15.12,44.52,44.52,0,0,0-8.67,1.55,58.55,58.55,0,0,1,5.74-16.62A67.65,67.65,0,0,0,54.53,3Z"/><path class="cls-2" d="M29.89,15.29A74.51,74.51,0,0,1,42.61,7.52a68.22,68.22,0,0,1,16,10.16l.06,0,0,.06,0,0-.06,0a59.26,59.26,0,0,0-2.81,17.28,43.84,43.84,0,0,0-7.52,4.59,59.46,59.46,0,0,1-.67-17.55A68.64,68.64,0,0,0,29.89,15.29Z"/><path class="cls-2" d="M11.38,35.59a75.21,75.21,0,0,1,9.07-11.8A68.32,68.32,0,0,1,39,27.47l0,0v.05l.05,0-.05,0a59.36,59.36,0,0,0,3.63,17.15,44.45,44.45,0,0,0-5.38,7,59,59,0,0,1-6.94-16.14A68,68,0,0,0,11.38,35.59Z"/><path class="cls-2" d="M1.44,61.26A74.57,74.57,0,0,1,5.62,46.94a68.48,68.48,0,0,1,18.66-3.27l0-.05,0,.05h.05l0,0A59,59,0,0,0,33.93,58.4a43.42,43.42,0,0,0-2.46,8.44A59.2,59.2,0,0,1,19.12,54.32,68.33,68.33,0,0,0,1.44,61.26Z"/><path class="cls-2" d="M1.44,88.74A75.47,75.47,0,0,1,.18,73.91,68.71,68.71,0,0,1,16.4,64.1v0l0,0,.05,0,0,.06A59.87,59.87,0,0,0,30.72,74.35a44.74,44.74,0,0,0,.75,8.81,59.32,59.32,0,0,1-16-7.26A67.51,67.51,0,0,0,1.44,88.74Z"/><path class="cls-2" d="M11.38,114.41A74.16,74.16,0,0,1,4.82,101a68.24,68.24,0,0,1,11.6-15V86l.05,0,0,0V86a59.24,59.24,0,0,0,16.94,4.4,44.27,44.27,0,0,0,3.88,7.91,59.54,59.54,0,0,1-17.55-1A68.66,68.66,0,0,0,11.38,114.41Z"/><path class="cls-2" d="M29.89,134.71A75.17,75.17,0,0,1,19,124.6a67.88,67.88,0,0,1,5.37-18.17l0-.05h.05l0,0,0,0a59.29,59.29,0,0,0,17.42-2,44.44,44.44,0,0,0,6.48,6,59.42,59.42,0,0,1-16.72,5.42A68.67,68.67,0,0,0,29.89,134.71Z"/><path class="cls-2" d="M54.53,147a74,74,0,0,1-13.87-5.49,68.52,68.52,0,0,1-1.54-18.88l0,0,.05,0v0l0,0a59.8,59.8,0,0,0,15.51-8.18,43.26,43.26,0,0,0,8.18,3.24,58.64,58.64,0,0,1-13.62,11.13A68.11,68.11,0,0,0,54.53,147Z"/><path class="cls-2" d="M81.89,149.51a74.54,74.54,0,0,1-14.86-.1,68.31,68.31,0,0,1-8.29-17.06h-.05l0,0,0-.05.06,0A59.36,59.36,0,0,0,70.25,119a45.12,45.12,0,0,0,8.85.06,59.93,59.93,0,0,1-8.7,15.28A68.39,68.39,0,0,0,81.89,149.51Z"/><path class="cls-2" d="M108.37,142a74.85,74.85,0,0,1-14,5.29,68.73,68.73,0,0,1-13.86-12.93H80.5l0,0,0-.05h.06a59.21,59.21,0,0,0,6-16.48,43.88,43.88,0,0,0,8.22-3.12,59.05,59.05,0,0,1-2.56,17.39A68.13,68.13,0,0,0,108.37,142Z"/><path class="cls-2" d="M130.3,125.42a74.6,74.6,0,0,1-11.07,9.94,68.09,68.09,0,0,1-17.61-7l-.05,0v-.05l0,0,0,0a58.79,58.79,0,0,0-.42-17.52,44.39,44.39,0,0,0,6.58-5.9A59.48,59.48,0,0,1,111.6,122,68.72,68.72,0,0,0,130.3,125.42Z"/><path class="cls-2" d="M144.78,102A74.45,74.45,0,0,1,138,115.33a69.19,69.19,0,0,1-18.94-.21l0,0v0H119l0,0a59.59,59.59,0,0,0-6.71-16.21,43.9,43.9,0,0,0,4-7.85,59,59,0,0,1,9.81,14.59A67.66,67.66,0,0,0,144.78,102Z"/><path class="cls-2" d="M149.84,75a75.36,75.36,0,0,1-1.47,14.81,68.64,68.64,0,0,1-17.76,6.67l0,0,0,0h-.06l0,0a59,59,0,0,0-12.11-12.66A44.49,44.49,0,0,0,119.3,75a60.49,60.49,0,0,1,14.41,10.06A69.78,69.78,0,0,0,149.84,75Z"/><path class="cls-2" d="M114,76.27c-1-.91-1.79-1.59-2.36-2l-3.47-3c-.58-.53-1.08-1-1.48-1.45s-.79-.81-1.14-1.13a2,2,0,0,0-1.3-.59,4,4,0,0,0-1.74.47L68.72,83.82l8.76-35.08a33.37,33.37,0,0,0,.74-3.85,1.83,1.83,0,0,0-.68-1.56c-.55-.49-1-.87-1.39-1.15L73,39.47c-.85-.77-1.53-1.41-2-1.94L68.33,35c-.12-.1-.28,0-.49.19s-.25.4-.14.51a6,6,0,0,1,2,3.57,13.8,13.8,0,0,1-.42,5.3v.11l-9.43,10L53.48,49l-1.27,1.41,6.32,5.7L53,61.91l-6.19-5.59-1.27,1.41,6.16,5.56-4.62,4.9a10.84,10.84,0,0,1-5.84,3.56,6.08,6.08,0,0,1-5.39-1.61c-.11-.1-.28,0-.49.19s-.25.4-.14.51c1,.94,1.89,1.67,2.55,2.19l3.7,3.23,3.13,2.94c.54.56,1.34,1.31,2.38,2.25.11.11.28,0,.49-.19s.25-.4.14-.5a5.8,5.8,0,0,1-2.09-5.09,10.63,10.63,0,0,1,3.18-6L68.06,49.17,57.56,90.25a.62.62,0,0,0,.25.65.63.63,0,0,0,.67.19l37.18-17.2L75.5,98.67l-.84,1c-1.11,1.23-2.13,1.78-3.06,1.64s-2.2-.93-3.82-2.4c-.12-.1-.28,0-.49.19s-.26.4-.14.51c1.27,1.15,2.29,2,3.06,2.66l4.4,3.86,4.23,3.93c.74.73,1.76,1.69,3.07,2.88.08.07.23,0,.43-.24s.28-.39.2-.45a11.69,11.69,0,0,1-2.37-2.67,2.47,2.47,0,0,1-.17-2.15,13.05,13.05,0,0,1,1.92-3l6.52-8,5,4.54,1.27-1.4L89.63,95l5.07-6.25,5.42,4.89,1.26-1.4-5.49-5,8.38-10.32c1.32-1.61,2.71-2.42,4.19-2.42s3.11.81,4.93,2.45c.11.11.28,0,.48-.19S114.13,76.37,114,76.27Z"/></g></g></g></g></svg>