<svg id="Logo_1" data-name="Logo 1" xmlns="http://www.w3.org/2000/svg" viewBox="0 0 300 300"><defs><style>.cls-1{fill:#f59332;}.cls-2{fill:#f7b97c;}</style></defs><g id="logo"><g id="logomark"><path class="cls-1" d="M219.78,96a73.36,73.36,0,0,1,4,14.38,68.85,68.85,0,0,1-14.14,12.6V123l0,0,0,0v-.06a59.75,59.75,0,0,0-15.87-7.46,44.4,44.4,0,0,0-2.34-8.48,59.14,59.14,0,0,1,17.08,4.17A68.16,68.16,0,0,0,219.78,96Z"/><path class="cls-1" d="M205.3,72.58a74.5,74.5,0,0,1,8.89,11.94,67.82,67.82,0,0,1-8.62,16.89l0,.06-.05,0,0,0,0-.06a58.87,58.87,0,0,0-17.47-1.2,44.27,44.27,0,0,0-5.27-7.08,59.72,59.72,0,0,1,17.42-2.27A68.64,68.64,0,0,0,205.3,72.58Z"/><path class="cls-1" d="M183.37,56A74.68,74.68,0,0,1,196,64a69,69,0,0,1-2,18.84l0,0H194v.05l0,0a59.49,59.49,0,0,0-16.76,5.19,43.59,43.59,0,0,0-7.46-4.71,58.87,58.87,0,0,1,15.44-8.41A67.93,67.93,0,0,0,183.37,56Z"/><path class="cls-1" d="M156.89,48.49a74.71,74.71,0,0,1,14.64,2.83,68.2,68.2,0,0,1,5,18.29l0,0,0,0v.06l-.05,0a59,59,0,0,0-13.73,10.88,44.38,44.38,0,0,0-8.65-1.67,60,60,0,0,1,11.34-13.44A68.67,68.67,0,0,0,156.89,48.49Z"/><path class="cls-1" d="M129.53,51A74.74,74.74,0,0,1,144.2,48.4a68.91,68.91,0,0,1,11.24,15.24h.06l0,0,0,.05h-.06a60.39,60.39,0,0,0-8.89,15.12,44.52,44.52,0,0,0-8.67,1.55,58.55,58.55,0,0,1,5.74-16.62A67.65,67.65,0,0,0,129.53,51Z"/><path class="cls-1" d="M104.89,63.29a74.51,74.51,0,0,1,12.72-7.77,68.22,68.22,0,0,1,16,10.16l.06,0,0,.06,0,0-.06,0a59.26,59.26,0,0,0-2.81,17.28,43.84,43.84,0,0,0-7.52,4.59,59.46,59.46,0,0,1-.67-17.55A68.64,68.64,0,0,0,104.89,63.29Z"/><path class="cls-1" d="M86.38,83.59a75.21,75.21,0,0,1,9.07-11.8A68.32,68.32,0,0,1,114,75.47l0,0v0l0,0,0,0a59.36,59.36,0,0,0,3.63,17.15,44.45,44.45,0,0,0-5.38,7,59,59,0,0,1-6.94-16.14A68,68,0,0,0,86.38,83.59Z"/><path class="cls-1" d="M76.44,109.26a74.57,74.57,0,0,1,4.18-14.32,68.48,68.48,0,0,1,18.66-3.27l0,0,0,0h0l0,0a59,59,0,0,0,9.57,14.68,43.42,43.42,0,0,0-2.46,8.44,59.2,59.2,0,0,1-12.35-12.52A68.33,68.33,0,0,0,76.44,109.26Z"/><path class="cls-1" d="M76.44,136.74a75.47,75.47,0,0,1-1.26-14.83A68.71,68.71,0,0,1,91.4,112.1v0l0,0,0,0,0,.06a59.87,59.87,0,0,0,14.24,10.23,44.74,44.74,0,0,0,.75,8.81,59.32,59.32,0,0,1-16-7.26A67.51,67.51,0,0,0,76.44,136.74Z"/><path class="cls-1" d="M86.38,162.41A74.16,74.16,0,0,1,79.82,149a68.24,68.24,0,0,1,11.6-15V134l0,0,0,0V134a59.24,59.24,0,0,0,16.94,4.4,44.27,44.27,0,0,0,3.88,7.91,59.54,59.54,0,0,1-17.55-1A68.66,68.66,0,0,0,86.38,162.41Z"/><path class="cls-1" d="M104.89,182.71A75.17,75.17,0,0,1,94,172.6a67.88,67.88,0,0,1,5.37-18.17l0-.05h.05l0,0,0,0a59.29,59.29,0,0,0,17.42-2,44.44,44.44,0,0,0,6.48,6,59.42,59.42,0,0,1-16.72,5.42A68.67,68.67,0,0,0,104.89,182.71Z"/><path class="cls-1" d="M129.53,195a74,74,0,0,1-13.87-5.49,68.52,68.52,0,0,1-1.54-18.88l0,0,0,0v-.05l.05,0a59.8,59.8,0,0,0,15.51-8.18,43.26,43.26,0,0,0,8.18,3.24,58.64,58.64,0,0,1-13.62,11.13A68.11,68.11,0,0,0,129.53,195Z"/><path class="cls-1" d="M156.89,197.51a74.54,74.54,0,0,1-14.86-.1,68.31,68.31,0,0,1-8.29-17.06h-.05l0,0,0-.05.06,0A59.36,59.36,0,0,0,145.25,167a45.12,45.12,0,0,0,8.85.06,59.93,59.93,0,0,1-8.7,15.28A68.39,68.39,0,0,0,156.89,197.51Z"/><path class="cls-1" d="M183.37,190a74.85,74.85,0,0,1-14,5.29,68.73,68.73,0,0,1-13.86-12.93h-.06l0,0,0-.05h.06a59.21,59.21,0,0,0,6-16.48,43.88,43.88,0,0,0,8.22-3.12,59.05,59.05,0,0,1-2.56,17.39A68.13,68.13,0,0,0,183.37,190Z"/><path class="cls-1" d="M205.3,173.42a74.6,74.6,0,0,1-11.07,9.94,68.09,68.09,0,0,1-17.61-7l-.05,0v-.05l-.05,0,.05,0a58.79,58.79,0,0,0-.42-17.52,44.39,44.39,0,0,0,6.58-5.9A59.48,59.48,0,0,1,186.6,170,68.72,68.72,0,0,0,205.3,173.42Z"/><path class="cls-1" d="M219.78,150A74.45,74.45,0,0,1,213,163.33a69.19,69.19,0,0,1-18.94-.21l0,0v0h0l0,0a59.59,59.59,0,0,0-6.71-16.21,43.9,43.9,0,0,0,4-7.85,59,59,0,0,1,9.81,14.59A67.66,67.66,0,0,0,219.78,150Z"/><path class="cls-1" d="M224.84,123a75.36,75.36,0,0,1-1.47,14.81,68.64,68.64,0,0,1-17.76,6.67l0,.05,0,0h-.06l0-.05a59,59,0,0,0-12.11-12.66,44.49,44.49,0,0,0,.88-8.79,60.49,60.49,0,0,1,14.41,10.06A69.78,69.78,0,0,0,224.84,123Z"/><path class="cls-1" d="M189,124.27c-1-.91-1.79-1.59-2.36-2l-3.47-3c-.58-.53-1.08-1-1.48-1.45s-.79-.81-1.14-1.13a2,2,0,0,0-1.3-.59,4,4,0,0,0-1.74.47l-33.8,15.31,8.76-35.08a33.37,33.37,0,0,0,.74-3.85,1.83,1.83,0,0,0-.68-1.56c-.55-.49-1-.87-1.39-1.15L148,87.47c-.85-.77-1.53-1.41-2-1.94L143.33,83c-.12-.1-.28,0-.49.19s-.25.4-.14.51a6,6,0,0,1,2,3.57,13.8,13.8,0,0,1-.42,5.3v.11l-9.43,10L128.48,97l-1.27,1.41,6.32,5.7L128,109.91l-6.19-5.59-1.27,1.41,6.16,5.56-4.62,4.9a10.84,10.84,0,0,1-5.84,3.56,6.08,6.08,0,0,1-5.39-1.61c-.11-.1-.28,0-.49.19s-.25.4-.14.51c1.05.94,1.89,1.67,2.55,2.19l3.7,3.23,3.13,2.94c.54.56,1.34,1.31,2.38,2.25.11.11.28,0,.49-.19s.25-.4.14-.5a5.8,5.8,0,0,1-2.09-5.09,10.63,10.63,0,0,1,3.18-6l19.34-20.48-10.5,41.08a.62.62,0,0,0,.25.65.63.63,0,0,0,.67.19l37.18-17.2L150.5,146.67l-.84,1c-1.11,1.23-2.13,1.78-3.06,1.64s-2.2-.93-3.82-2.4c-.12-.1-.28,0-.49.19s-.26.4-.14.51c1.27,1.15,2.29,2,3.06,2.66l4.4,3.86,4.23,3.93c.74.73,1.76,1.69,3.07,2.88.08.07.23,0,.43-.24s.28-.39.2-.45a11.69,11.69,0,0,1-2.37-2.67,2.47,2.47,0,0,1-.17-2.15,13.05,13.05,0,0,1,1.92-3l6.52-8,5,4.54,1.27-1.4-5.1-4.61,5.07-6.25,5.42,4.89,1.26-1.4-5.49-5,8.38-10.32c1.32-1.61,2.71-2.42,4.19-2.42s3.11.81,4.93,2.45c.11.11.28,0,.48-.19S189.13,124.37,189,124.27Z"/></g><g id="text"><path class="cls-1" d="M99.92,228.14c0,.18,0,.26-.09.26-1,0-1.75,0-2.32,0l-3.18,0-3.23,0c-.54,0-1.29,0-2.23,0-.09,0-.13-.08-.13-.26s0-.25.13-.25a4.9,4.9,0,0,0,2.45-.43,2.06,2.06,0,0,0,.64-1.81l0-.73L91,207.33,82.16,228.1a.34.34,0,0,1-.34.17.34.34,0,0,1-.35-.17L70.59,207.42l-.34,15.52a5.82,5.82,0,0,0,.92,3.63,3.2,3.2,0,0,0,2.73,1.32c.09,0,.13.08.13.25s0,.26-.13.26c-.77,0-1.37,0-1.8,0l-2.37,0-2.71,0c-.46,0-1.07,0-1.85,0-.08,0-.12-.08-.12-.26s0-.25.12-.25a3.36,3.36,0,0,0,2.8-1.34A5.87,5.87,0,0,0,69,222.94l.39-17.8,0,0a7.58,7.58,0,0,0-1.79-2.33,3.35,3.35,0,0,0-2.12-.73c-.09,0-.13-.08-.13-.26s0-.25.13-.25l2,0c.4,0,.91,0,1.54,0l2.28,0a9.09,9.09,0,0,1,1,0,1,1,0,0,1,.86.38,18.8,18.8,0,0,1,1.12,1.85l9.37,17.59,8.17-18.75a2.53,2.53,0,0,1,.54-.84,1.18,1.18,0,0,1,.75-.23c.26,0,.56,0,.89,0s.71,0,1.14,0l2.53,0c.4,0,1,0,1.72,0,.09,0,.13.08.13.25s0,.26-.13.26a4.3,4.3,0,0,0-2.92.82,3,3,0,0,0-.82,2.54l1,19.52a6.87,6.87,0,0,0,.33,1.93,1.3,1.3,0,0,0,.86.82,6.49,6.49,0,0,0,2,.22C99.89,227.89,99.92,228,99.92,228.14Z"/><path class="cls-1" d="M121.85,225.56c.06,0,.12.06.19.18s.08.2,0,.25a10.45,10.45,0,0,1-3.22,2.24,9.09,9.09,0,0,1-3.57.69,9.23,9.23,0,0,1-4.69-1.14,7.74,7.74,0,0,1-3-3.05,8.6,8.6,0,0,1-1-4.15,8.76,8.76,0,0,1,1.25-4.6,9,9,0,0,1,3.46-3.34,10.21,10.21,0,0,1,5-1.22,6.37,6.37,0,0,1,4.13,1.2,4.58,4.58,0,0,1,1.46,3.74c0,.89-.16,1.34-.48,1.34l-10.44,0a7.32,7.32,0,0,0-.05,1,9.17,9.17,0,0,0,1.74,5.93,6.07,6.07,0,0,0,5,2.15,6.34,6.34,0,0,0,2-.26,13.93,13.93,0,0,0,2.15-.94Zm-9.59-12.06a7.1,7.1,0,0,0-1.25,3.38l6.24-.09a7.8,7.8,0,0,0-.65-3.35,2.05,2.05,0,0,0-2-1.16A2.89,2.89,0,0,0,112.26,213.5Z"/><path class="cls-1" d="M132.45,227.69a7.72,7.72,0,0,1-2.93-3.18,9.19,9.19,0,0,1-1-4.11,7.82,7.82,0,0,1,1.5-4.75,9.93,9.93,0,0,1,3.85-3.14,11.19,11.19,0,0,1,4.79-1.09,7.85,7.85,0,0,1,3.72.86,2.61,2.61,0,0,1,1.66,2.36,1.86,1.86,0,0,1-.62,1.4,2.47,2.47,0,0,1-1.75.58,2.36,2.36,0,0,1-1.63-.54,3.93,3.93,0,0,1-1-1.65,5.59,5.59,0,0,0-.75-1.66,1.62,1.62,0,0,0-1.31-.45,3.32,3.32,0,0,0-2.95,1.83,11.12,11.12,0,0,0,.5,10.53q1.59,2.13,5.07,2.13a6.6,6.6,0,0,0,2-.26,15.75,15.75,0,0,0,2.13-.86h0a.33.33,0,0,1,.24.13c.07.09.08.16,0,.22a12,12,0,0,1-3.18,2.17,9,9,0,0,1-3.66.71A8.81,8.81,0,0,1,132.45,227.69Z"/><path class="cls-1" d="M166.18,225.56c.06,0,.12.06.19.18s.08.2,0,.25a10.61,10.61,0,0,1-3.23,2.24,9.09,9.09,0,0,1-3.57.69,9.26,9.26,0,0,1-4.69-1.14,7.71,7.71,0,0,1-3-3.05,8.6,8.6,0,0,1-1-4.15,8.85,8.85,0,0,1,1.25-4.6,9,9,0,0,1,3.46-3.34,10.26,10.26,0,0,1,5-1.22,6.35,6.35,0,0,1,4.13,1.2,4.58,4.58,0,0,1,1.46,3.74c0,.89-.16,1.34-.47,1.34l-10.45,0a7.78,7.78,0,0,0,0,1,9.17,9.17,0,0,0,1.74,5.93,6.05,6.05,0,0,0,5,2.15,6.42,6.42,0,0,0,2-.26,13.9,13.9,0,0,0,2.14-.94Zm-9.59-12.06a7.21,7.21,0,0,0-1.25,3.38l6.24-.09a7.66,7.66,0,0,0-.65-3.35,2,2,0,0,0-2-1.16A2.89,2.89,0,0,0,156.59,213.5Z"/><path class="cls-1" d="M193.79,228.14c0,.18,0,.26-.13.26-.75,0-1.33,0-1.76,0l-2.58,0-2.5,0c-.46,0-1.06,0-1.8,0-.09,0-.13-.08-.13-.26s0-.25.13-.25a2.14,2.14,0,0,0,1.8-.63,4,4,0,0,0,.47-2.34v-6.19a5.79,5.79,0,0,0-.83-3.44,3.08,3.08,0,0,0-2.65-1.12,5.74,5.74,0,0,0-2.13.43,6.22,6.22,0,0,0-1.91,1.16v9.16a3.94,3.94,0,0,0,.49,2.34,2.22,2.22,0,0,0,1.83.63c.09,0,.13.08.13.25s0,.26-.13.26c-.74,0-1.33,0-1.76,0l-2.58,0-2.54,0c-.43,0-1,0-1.76,0-.09,0-.13-.08-.13-.26s0-.25.13-.25a2.12,2.12,0,0,0,1.8-.63,4,4,0,0,0,.48-2.34v-8.08a4.38,4.38,0,0,0-.33-2,1,1,0,0,0-1-.62,5.57,5.57,0,0,0-2.06.6h-.09c-.08,0-.15-.07-.19-.22s0-.23,0-.26l6-2.92.3-.09q.48,0,.9.93a6.94,6.94,0,0,1,.52,2.51q3-3.52,6.54-3.52a4.72,4.72,0,0,1,3.67,1.48,5.57,5.57,0,0,1,1.36,3.89v8.26a3.94,3.94,0,0,0,.49,2.34,2.22,2.22,0,0,0,1.83.63C193.74,227.89,193.79,228,193.79,228.14Z"/><path class="cls-1" d="M216.71,226.08a.23.23,0,0,1,.23.19.2.2,0,0,1-.11.28l-4.42,2.11a.94.94,0,0,1-.43.09,1.78,1.78,0,0,1-1.32-.74,4.33,4.33,0,0,1-.88-2l-1.85,1.29a7.72,7.72,0,0,1-1.85,1,5.32,5.32,0,0,1-1.93.32,4.21,4.21,0,0,1-2.8-.81,3.31,3.31,0,0,1-.38-4.15,3.89,3.89,0,0,1,1.39-1.12,23,23,0,0,1,2.35-.93l1.07-.38,3.87-1.42v-2.45a12.79,12.79,0,0,0-.45-4,1.59,1.59,0,0,0-1.52-1.25q-2.28,0-2.58,3.53a2.79,2.79,0,0,1-.76,1.85,2.51,2.51,0,0,1-1.74.56,2.28,2.28,0,0,1-1.57-.46,1.51,1.51,0,0,1-.49-1.18A3.25,3.25,0,0,1,202,214a12.18,12.18,0,0,1,3.64-1.91,11.69,11.69,0,0,1,3.76-.74,4.15,4.15,0,0,1,3.07,1.19,4.87,4.87,0,0,1,1.19,3.59v7.61a3.49,3.49,0,0,0,.45,1.93,1.43,1.43,0,0,0,1.27.69,2.93,2.93,0,0,0,1.24-.3Zm-7-.77a2.41,2.41,0,0,1,0-.56v-4.13l-1.85.86-.86.32a3.07,3.07,0,0,0-1.26.93,2.27,2.27,0,0,0-.54,1.5,2,2,0,0,0,.66,1.61,2.27,2.27,0,0,0,1.53.58,2.58,2.58,0,0,0,1.42-.47Z"/><path class="cls-1" d="M227.05,216a12.46,12.46,0,0,0,2.55,1.89c1.09.63,1.9,1.13,2.43,1.48a5.36,5.36,0,0,1,1.44,1.51,4.1,4.1,0,0,1,.65,2.34,5.41,5.41,0,0,1-2.92,4.84,7.23,7.23,0,0,1-3.49.8,9.07,9.07,0,0,1-4.47-1.17.74.74,0,0,1-.26-.51l-.08-4.26c0-.08.08-.13.23-.15s.25,0,.28.07a8.52,8.52,0,0,0,2.28,3.65,4.74,4.74,0,0,0,3.23,1.5,1.91,1.91,0,0,0,1.44-.55,2.28,2.28,0,0,0,.53-1.64,3.43,3.43,0,0,0-.9-2.51,11.82,11.82,0,0,0-2.66-1.92c-1-.54-1.77-1-2.28-1.33a4.74,4.74,0,0,1-1.38-1.46,4.26,4.26,0,0,1-.6-2.32,4.13,4.13,0,0,1,1.8-3.72,7.92,7.92,0,0,1,4.43-1.19,12,12,0,0,1,1.79.13,9,9,0,0,1,1.78.52.48.48,0,0,1,.39.47c0,.72,0,1.28,0,1.68l-.05,2.15c0,.09-.08.13-.25.13s-.26,0-.26-.13a3.16,3.16,0,0,0-.69-1.79,6.28,6.28,0,0,0-1.78-1.65,4.23,4.23,0,0,0-2.26-.69q-1.77,0-1.77,1.68A3,3,0,0,0,227.05,216Z"/><path class="cls-2" d="M69.56,250.61H68.18a.58.58,0,0,1-.55-.29l-1.09-1.9a.49.49,0,0,0-.17-.18.62.62,0,0,0-.27-.05h-.38v2.42H64.2v-6.55h2.13a4.28,4.28,0,0,1,1.21.14,2.33,2.33,0,0,1,.82.41,1.46,1.46,0,0,1,.46.62A1.92,1.92,0,0,1,69,246a2.05,2.05,0,0,1-.34,1.13,2.08,2.08,0,0,1-.41.43,2.6,2.6,0,0,1-.57.31,1.26,1.26,0,0,1,.28.19,1.18,1.18,0,0,1,.23.27Zm-3.23-3.47a1.64,1.64,0,0,0,.53-.08,1,1,0,0,0,.35-.22.72.72,0,0,0,.21-.33,1.25,1.25,0,0,0,.06-.4.82.82,0,0,0-.28-.67,1.33,1.33,0,0,0-.87-.25h-.61v1.95Z"/><path class="cls-2" d="M76.19,248.53a1.31,1.31,0,0,0,.35.85,1.1,1.1,0,0,0,.75.26,1.22,1.22,0,0,0,.41-.06,1.93,1.93,0,0,0,.32-.13l.25-.13a.53.53,0,0,1,.24-.06.29.29,0,0,1,.25.12l.41.5a2.23,2.23,0,0,1-.47.41,2.93,2.93,0,0,1-.51.24,2.53,2.53,0,0,1-.53.12l-.5,0a2.54,2.54,0,0,1-.92-.16,2,2,0,0,1-.75-.47,2.12,2.12,0,0,1-.51-.78,2.86,2.86,0,0,1-.19-1.09,2.65,2.65,0,0,1,.16-.89,2.21,2.21,0,0,1,.46-.73,2.11,2.11,0,0,1,.73-.5,2.42,2.42,0,0,1,1-.19A2.34,2.34,0,0,1,78,246a1.77,1.77,0,0,1,.66.42,2,2,0,0,1,.43.67,2.54,2.54,0,0,1,.15.9,1.93,1.93,0,0,1,0,.26.6.6,0,0,1-.05.16.27.27,0,0,1-.1.08l-.15,0Zm1.75-.81a1.24,1.24,0,0,0,0-.33,1,1,0,0,0-.14-.28.71.71,0,0,0-.25-.2.94.94,0,0,0-.39-.07.84.84,0,0,0-.62.22,1.15,1.15,0,0,0-.29.66Z"/><path class="cls-2" d="M88.72,247.05l-.12.12a.29.29,0,0,1-.17.05.35.35,0,0,1-.18-.05l-.19-.11a1.33,1.33,0,0,0-.24-.11,1.18,1.18,0,0,0-.35,0A1,1,0,0,0,87,247a.91.91,0,0,0-.31.27,1.3,1.3,0,0,0-.18.43,2.52,2.52,0,0,0-.06.58,1.78,1.78,0,0,0,.26,1,.83.83,0,0,0,.71.36,1.07,1.07,0,0,0,.39-.06,1.38,1.38,0,0,0,.24-.14l.18-.14a.33.33,0,0,1,.21-.06.29.29,0,0,1,.25.12l.41.5a2.14,2.14,0,0,1-.95.65,2.15,2.15,0,0,1-.5.12l-.49,0a2.1,2.1,0,0,1-.82-.16,2,2,0,0,1-.68-.47,2.23,2.23,0,0,1-.47-.76,3.12,3.12,0,0,1,0-2,2.3,2.3,0,0,1,.44-.76,2.11,2.11,0,0,1,.73-.5,2.64,2.64,0,0,1,1-.19,2.3,2.3,0,0,1,1.71.69Z"/><path class="cls-2" d="M99.26,246v4.66h-.87a.33.33,0,0,1-.34-.23l-.08-.27a2.83,2.83,0,0,1-.28.23,1.92,1.92,0,0,1-.31.18,2.06,2.06,0,0,1-.35.12,1.87,1.87,0,0,1-.42,0,1.62,1.62,0,0,1-.68-.13,1.52,1.52,0,0,1-.5-.37,1.77,1.77,0,0,1-.3-.56,2.34,2.34,0,0,1-.1-.71v-3h1.39v3a.76.76,0,0,0,.16.53.55.55,0,0,0,.46.19.91.91,0,0,0,.43-.1,1.76,1.76,0,0,0,.39-.26V246Z"/><path class="cls-2" d="M106.9,246.67a2,2,0,0,1,.5-.6,1.05,1.05,0,0,1,.65-.21.88.88,0,0,1,.51.14l-.09,1a.23.23,0,0,1-.07.14.33.33,0,0,1-.15,0H108l-.13,0h-.12a.71.71,0,0,0-.49.16,1.43,1.43,0,0,0-.31.45v2.83H105.6V246h1a.34.34,0,0,1,.12.06.36.36,0,0,1,.07.1.54.54,0,0,1,0,.15Z"/><path class="cls-2" d="M115.74,246.67a1.88,1.88,0,0,1,.5-.6,1,1,0,0,1,.64-.21.88.88,0,0,1,.51.14l-.09,1a.23.23,0,0,1-.07.14.26.26,0,0,1-.14,0h-.22l-.13,0h-.12a.68.68,0,0,0-.48.16,1.16,1.16,0,0,0-.31.45v2.83h-1.4V246h1a.34.34,0,0,1,.12.06.23.23,0,0,1,.07.1,1.31,1.31,0,0,1,0,.15Z"/><path class="cls-2" d="M124.84,244.67a.82.82,0,0,1-.07.31,1.2,1.2,0,0,1-.18.26.88.88,0,0,1-.28.17.72.72,0,0,1-.33.07.71.71,0,0,1-.32-.07.9.9,0,0,1-.26-.17.76.76,0,0,1-.18-.26.74.74,0,0,1,0-.63.68.68,0,0,1,.18-.26.76.76,0,0,1,.26-.18.87.87,0,0,1,.32-.06.88.88,0,0,1,.33.06.75.75,0,0,1,.28.18,1,1,0,0,1,.18.26A.83.83,0,0,1,124.84,244.67Zm-.15,1.28v4.66H123.3V246Z"/><path class="cls-2" d="M132.36,246.45a3.11,3.11,0,0,1,.28-.23,1.17,1.17,0,0,1,.3-.19,1.89,1.89,0,0,1,.36-.11,1.86,1.86,0,0,1,.42,0,1.57,1.57,0,0,1,.67.14,1.34,1.34,0,0,1,.5.37,1.45,1.45,0,0,1,.31.56,2.65,2.65,0,0,1,.1.71v3h-1.4v-3a.87.87,0,0,0-.15-.54.6.6,0,0,0-.47-.19.94.94,0,0,0-.43.1,1.76,1.76,0,0,0-.39.26v3.33h-1.39V246h.86a.33.33,0,0,1,.35.23Z"/><path class="cls-2" d="M145.83,246.09v.51a.24.24,0,0,1-.06.18.45.45,0,0,1-.22.11l-.34.07a1.55,1.55,0,0,1,0,.21,1.36,1.36,0,0,1,0,.21,1.3,1.3,0,0,1-.15.63,1.43,1.43,0,0,1-.4.48,1.88,1.88,0,0,1-.6.3,2.55,2.55,0,0,1-.74.1h-.21l-.21,0a.25.25,0,0,0-.15.21.17.17,0,0,0,.13.17.9.9,0,0,0,.33.07,3.28,3.28,0,0,0,.47,0l.54,0a5.07,5.07,0,0,1,.54.09,1.48,1.48,0,0,1,.47.18,1.23,1.23,0,0,1,.33.35,1.16,1.16,0,0,1,.12.56,1.41,1.41,0,0,1-.15.62,1.5,1.5,0,0,1-.45.53,2.39,2.39,0,0,1-.73.38,3.33,3.33,0,0,1-1,.14,4.4,4.4,0,0,1-.95-.1,2.22,2.22,0,0,1-.66-.28,1.21,1.21,0,0,1-.39-.39.93.93,0,0,1-.12-.46.76.76,0,0,1,.18-.51,1.34,1.34,0,0,1,.5-.34.84.84,0,0,1-.27-.26.87.87,0,0,1-.1-.42.93.93,0,0,1,0-.22.76.76,0,0,1,.11-.22,1,1,0,0,1,.2-.21,1.12,1.12,0,0,1,.28-.18,1.6,1.6,0,0,1-.58-.51,1.31,1.31,0,0,1-.21-.74,1.33,1.33,0,0,1,.15-.63,1.35,1.35,0,0,1,.41-.48,1.83,1.83,0,0,1,.61-.3,2.58,2.58,0,0,1,.76-.11,2.38,2.38,0,0,1,1.05.23Zm-1.37,4.69a.25.25,0,0,0-.15-.24,1.23,1.23,0,0,0-.39-.1,4.24,4.24,0,0,0-.53,0l-.59,0a.81.81,0,0,0-.21.2.4.4,0,0,0-.09.25.35.35,0,0,0,.05.18.29.29,0,0,0,.15.14,1.21,1.21,0,0,0,.29.1,2.86,2.86,0,0,0,.46,0,2.19,2.19,0,0,0,.49,0,1,1,0,0,0,.31-.09.41.41,0,0,0,.16-.16A.38.38,0,0,0,144.46,250.78ZM143.38,248a.62.62,0,0,0,.5-.17.66.66,0,0,0,.15-.45.6.6,0,0,0-.15-.44.82.82,0,0,0-1,0,.57.57,0,0,0-.16.44.66.66,0,0,0,0,.25.41.41,0,0,0,.12.2.77.77,0,0,0,.2.13A.87.87,0,0,0,143.38,248Z"/><path class="cls-2" d="M161.2,244.06a3.81,3.81,0,0,1,1.19.16,2.39,2.39,0,0,1,.82.45,1.77,1.77,0,0,1,.47.68,2.15,2.15,0,0,1,.16.85,2.66,2.66,0,0,1-.16.9,2,2,0,0,1-.48.7,2.4,2.4,0,0,1-.82.46,3.83,3.83,0,0,1-1.18.16h-.79v2.19h-1.52v-6.55Zm0,3.21a1,1,0,0,0,1.12-1.07,1.3,1.3,0,0,0-.07-.41,1,1,0,0,0-.21-.32.77.77,0,0,0-.34-.2,1.5,1.5,0,0,0-.5-.08h-.79v2.08Z"/><path class="cls-2" d="M169.61,246.59a2.9,2.9,0,0,1,.94-.55,3.36,3.36,0,0,1,1.11-.18,2.06,2.06,0,0,1,.76.13,1.56,1.56,0,0,1,.58.39,1.78,1.78,0,0,1,.36.58,2.17,2.17,0,0,1,.12.74v2.91h-.63a.71.71,0,0,1-.3-.05.39.39,0,0,1-.17-.23l-.1-.25-.34.26a2.79,2.79,0,0,1-.33.19,2.29,2.29,0,0,1-.37.12,2.94,2.94,0,0,1-.44,0,1.81,1.81,0,0,1-.58-.08,1.25,1.25,0,0,1-.44-.24,1.07,1.07,0,0,1-.28-.41,1.35,1.35,0,0,1-.1-.55,1.19,1.19,0,0,1,.12-.51,1.31,1.31,0,0,1,.44-.48,2.76,2.76,0,0,1,.84-.35,5.76,5.76,0,0,1,1.33-.17v-.19a.9.9,0,0,0-.17-.6.65.65,0,0,0-.48-.18,1.39,1.39,0,0,0-.69.18l-.24.12a.61.61,0,0,1-.28.05.38.38,0,0,1-.24-.07.52.52,0,0,1-.16-.17Zm2.52,2.12a5.29,5.29,0,0,0-.69.07,2,2,0,0,0-.43.14.52.52,0,0,0-.22.18.46.46,0,0,0-.06.23.37.37,0,0,0,.13.33.61.61,0,0,0,.38.1,1.21,1.21,0,0,0,.48-.09,1.77,1.77,0,0,0,.41-.31Z"/><path class="cls-2" d="M184.05,246l-2.49,5.87a.49.49,0,0,1-.15.21.55.55,0,0,1-.29.06h-1l.9-1.89L179.11,246h1.24a.37.37,0,0,1,.25.07.43.43,0,0,1,.13.17l.76,2a5.22,5.22,0,0,1,.18.56l.09-.29c0-.09.07-.19.11-.28l.69-2a.35.35,0,0,1,.15-.17.34.34,0,0,1,.22-.07Z"/><path class="cls-2" d="M189.86,250.61V246h.87a.32.32,0,0,1,.34.23l.08.25a2.5,2.5,0,0,1,.24-.22,1.27,1.27,0,0,1,.27-.18,1.51,1.51,0,0,1,.32-.11,1.38,1.38,0,0,1,.37,0,1.15,1.15,0,0,1,.7.22,1.47,1.47,0,0,1,.42.58,1.45,1.45,0,0,1,.28-.36,1.42,1.42,0,0,1,.37-.25,1.53,1.53,0,0,1,.41-.14,2.2,2.2,0,0,1,.44,0,2,2,0,0,1,.71.12,1.37,1.37,0,0,1,.52.35,1.61,1.61,0,0,1,.32.56,2.48,2.48,0,0,1,.1.75v3h-1.39v-3c0-.49-.21-.73-.62-.73a.61.61,0,0,0-.47.19.7.7,0,0,0-.19.54v3h-1.39v-3a.84.84,0,0,0-.16-.57.67.67,0,0,0-.47-.16.73.73,0,0,0-.35.09,1,1,0,0,0-.32.23v3.37Z"/><path class="cls-2" d="M204.07,248.53a1.32,1.32,0,0,0,.36.85,1.08,1.08,0,0,0,.74.26,1.33,1.33,0,0,0,.42-.06,2.22,2.22,0,0,0,.31-.13l.25-.13a.53.53,0,0,1,.24-.06.28.28,0,0,1,.25.12l.41.5a2,2,0,0,1-.47.41,2.55,2.55,0,0,1-1,.36l-.5,0a2.58,2.58,0,0,1-.92-.16,2.11,2.11,0,0,1-.75-.47,2.4,2.4,0,0,1-.51-.78,3.08,3.08,0,0,1-.18-1.09,2.42,2.42,0,0,1,.16-.89,2,2,0,0,1,.45-.73,2.21,2.21,0,0,1,.73-.5,2.42,2.42,0,0,1,1-.19,2.34,2.34,0,0,1,.85.15,1.7,1.7,0,0,1,.66.42,1.84,1.84,0,0,1,.43.67,2.33,2.33,0,0,1,.16.9,1.72,1.72,0,0,1,0,.26.38.38,0,0,1-.05.16.24.24,0,0,1-.09.08l-.16,0Zm1.76-.81a1.26,1.26,0,0,0-.05-.33.82.82,0,0,0-.14-.28.71.71,0,0,0-.25-.2.89.89,0,0,0-.38-.07.83.83,0,0,0-.62.22,1.23,1.23,0,0,0-.3.66Z"/><path class="cls-2" d="M214.46,246.45a3.11,3.11,0,0,1,.28-.23,1.44,1.44,0,0,1,.31-.19,2,2,0,0,1,.35-.11,1.86,1.86,0,0,1,.42,0,1.62,1.62,0,0,1,.68.14,1.38,1.38,0,0,1,.49.37,1.45,1.45,0,0,1,.31.56,2.3,2.3,0,0,1,.1.71v3H216v-3a.81.81,0,0,0-.16-.54.58.58,0,0,0-.46-.19.91.91,0,0,0-.43.1,1.56,1.56,0,0,0-.39.26v3.33h-1.4V246H214a.32.32,0,0,1,.34.23Z"/><path class="cls-2" d="M225.31,250.68a1.78,1.78,0,0,1-.59-.09,1.15,1.15,0,0,1-.42-.28,1.12,1.12,0,0,1-.27-.43,1.6,1.6,0,0,1-.09-.56v-2.41h-.39a.25.25,0,0,1-.19-.07.28.28,0,0,1-.07-.21v-.54L224,246l.27-1.14a.28.28,0,0,1,.31-.22h.73V246h1.15v1h-1.15v2.32a.38.38,0,0,0,.08.26.25.25,0,0,0,.22.11l.13,0,.09,0,.07,0H226a.15.15,0,0,1,.1,0,.18.18,0,0,1,.08.09l.43.66a1.93,1.93,0,0,1-.61.3A2.37,2.37,0,0,1,225.31,250.68Z"/><path class="cls-2" d="M235.46,247a.43.43,0,0,1-.11.12.35.35,0,0,1-.16,0,.43.43,0,0,1-.19,0l-.22-.09-.26-.09a1,1,0,0,0-.33-.05.66.66,0,0,0-.4.11.3.3,0,0,0-.14.28.27.27,0,0,0,.09.21.7.7,0,0,0,.24.15,2.34,2.34,0,0,0,.35.13l.4.13a3.29,3.29,0,0,1,.39.17,1.21,1.21,0,0,1,.35.24,1,1,0,0,1,.24.34,1.19,1.19,0,0,1,.09.49,1.61,1.61,0,0,1-.12.63,1.37,1.37,0,0,1-.38.51,1.78,1.78,0,0,1-.61.33,2.78,2.78,0,0,1-.85.11,2.49,2.49,0,0,1-.47,0,3.09,3.09,0,0,1-.46-.12,2.65,2.65,0,0,1-.42-.18,3,3,0,0,1-.32-.23l.32-.51a.41.41,0,0,1,.14-.15.46.46,0,0,1,.21,0,.38.38,0,0,1,.22.06l.21.11.26.12a1.4,1.4,0,0,0,.66,0,.51.51,0,0,0,.18-.09.57.57,0,0,0,.1-.13.4.4,0,0,0,0-.15.32.32,0,0,0-.09-.23,1.2,1.2,0,0,0-.25-.16l-.35-.12-.4-.13a2.28,2.28,0,0,1-.4-.17,1.45,1.45,0,0,1-.35-.26,1.12,1.12,0,0,1-.24-.38,1.27,1.27,0,0,1-.1-.54,1.4,1.4,0,0,1,.46-1,1.79,1.79,0,0,1,.58-.32,2.47,2.47,0,0,1,.81-.12,2.63,2.63,0,0,1,.49,0,3.17,3.17,0,0,1,.44.12,2.28,2.28,0,0,1,.38.2,1.76,1.76,0,0,1,.3.24Z"/></g></g></svg>